<svg width="18" height="19" viewBox="0 0 18 19" fill="none" xmlns="http://www.w3.org/2000/svg">
<path d="M0.166016 4.57812C4.74805 -0.00390625 12.2188 -0.00390625 16.8008 4.57812C17 4.77734 17.0332 5.10938 16.9004 5.3418L15.4727 7.63281C15.3398 7.79883 15.1738 7.93164 14.9414 7.93164C14.875 7.93164 14.7754 7.89844 14.709 7.86523L11.8535 6.73633C11.6211 6.63672 11.4551 6.4375 11.4551 6.17188C11.4551 6.13867 11.4551 6.13867 11.4551 6.10547L11.6543 4.11328C9.5957 3.38281 7.33789 3.41602 5.3125 4.11328L5.51172 6.10547C5.51172 6.13867 5.51172 6.13867 5.51172 6.17188C5.51172 6.4375 5.3457 6.63672 5.11328 6.73633L2.25781 7.86523C2.19141 7.89844 2.0918 7.93164 2.02539 7.93164C1.79297 7.93164 1.62695 7.79883 1.49414 7.63281L0.0664062 5.3418C0.0332031 5.24219 0 5.14258 0 5.00977C0 4.84375 0.0664062 4.71094 0.166016 4.57812ZM3.1875 11.3516C3.1875 11.584 2.98828 11.75 2.78906 11.75H1.46094C1.22852 11.75 1.0625 11.584 1.0625 11.3516V10.0234C1.0625 9.82422 1.22852 9.625 1.46094 9.625H2.78906C2.98828 9.625 3.1875 9.82422 3.1875 10.0234V11.3516ZM6.375 11.3516C6.375 11.584 6.17578 11.75 5.97656 11.75H4.64844C4.41602 11.75 4.25 11.584 4.25 11.3516V10.0234C4.25 9.82422 4.41602 9.625 4.64844 9.625H5.97656C6.17578 9.625 6.375 9.82422 6.375 10.0234V11.3516ZM9.5625 11.3516C9.5625 11.584 9.36328 11.75 9.16406 11.75H7.83594C7.60352 11.75 7.4375 11.584 7.4375 11.3516V10.0234C7.4375 9.82422 7.60352 9.625 7.83594 9.625H9.16406C9.36328 9.625 9.5625 9.82422 9.5625 10.0234V11.3516ZM12.75 11.3516C12.75 11.584 12.5508 11.75 12.3516 11.75H11.0234C10.791 11.75 10.625 11.584 10.625 11.3516V10.0234C10.625 9.82422 10.791 9.625 11.0234 9.625H12.3516C12.5508 9.625 12.75 9.82422 12.75 10.0234V11.3516ZM15.9375 11.3516C15.9375 11.584 15.7383 11.75 15.5391 11.75H14.2109C13.9785 11.75 13.8125 11.584 13.8125 11.3516V10.0234C13.8125 9.82422 13.9785 9.625 14.2109 9.625H15.5391C15.7383 9.625 15.9375 9.82422 15.9375 10.0234V11.3516ZM4.78125 14.5391C4.78125 14.7715 4.58203 14.9375 4.38281 14.9375H3.05469C2.82227 14.9375 2.65625 14.7715 2.65625 14.5391V13.2109C2.65625 13.0117 2.82227 12.8125 3.05469 12.8125H4.38281C4.58203 12.8125 4.78125 13.0117 4.78125 13.2109V14.5391ZM7.96875 14.5391C7.96875 14.7715 7.76953 14.9375 7.57031 14.9375H6.24219C6.00977 14.9375 5.84375 14.7715 5.84375 14.5391V13.2109C5.84375 13.0117 6.00977 12.8125 6.24219 12.8125H7.57031C7.76953 12.8125 7.96875 13.0117 7.96875 13.2109V14.5391ZM11.1562 14.5391C11.1562 14.7715 10.957 14.9375 10.7578 14.9375H9.42969C9.19727 14.9375 9.03125 14.7715 9.03125 14.5391V13.2109C9.03125 13.0117 9.19727 12.8125 9.42969 12.8125H10.7578C10.957 12.8125 11.1562 13.0117 11.1562 13.2109V14.5391ZM14.3438 14.5391C14.3438 14.7715 14.1445 14.9375 13.9453 14.9375H12.6172C12.3848 14.9375 12.2188 14.7715 12.2188 14.5391V13.2109C12.2188 13.0117 12.3848 12.8125 12.6172 12.8125H13.9453C14.1445 12.8125 14.3438 13.0117 14.3438 13.2109V14.5391ZM3.1875 17.7266C3.1875 17.959 2.98828 18.125 2.78906 18.125H1.46094C1.22852 18.125 1.0625 17.959 1.0625 17.7266V16.3984C1.0625 16.1992 1.22852 16 1.46094 16H2.78906C2.98828 16 3.1875 16.1992 3.1875 16.3984V17.7266ZM12.75 17.7266C12.75 17.959 12.5508 18.125 12.3516 18.125H4.64844C4.41602 18.125 4.25 17.959 4.25 17.7266V16.3984C4.25 16.1992 4.41602 16 4.64844 16H12.3516C12.5508 16 12.75 16.1992 12.75 16.3984V17.7266ZM15.9375 17.7266C15.9375 17.959 15.7383 18.125 15.5391 18.125H14.2109C13.9785 18.125 13.8125 17.959 13.8125 17.7266V16.3984C13.8125 16.1992 13.9785 16 14.2109 16H15.5391C15.7383 16 15.9375 16.1992 15.9375 16.3984V17.7266Z" fill="#666666"/>
</svg>
