<svg width="15" height="18" viewBox="0 0 15 18" fill="none" xmlns="http://www.w3.org/2000/svg">
<path d="M10.3926 10.2188C12.8496 10.2188 14.875 12.2441 14.875 14.7012V15.5312C14.875 16.4277 14.1445 17.125 13.2812 17.125H1.59375C0.697266 17.125 0 16.4277 0 15.5312V14.7012C0 12.2441 1.99219 10.2188 4.44922 10.2188C5.41211 10.2188 5.84375 10.75 7.4375 10.75C8.99805 10.75 9.42969 10.2188 10.3926 10.2188ZM13.2812 15.5312V14.7012C13.2812 13.1074 11.9863 11.8125 10.3926 11.8125C9.89453 11.8125 9.13086 12.3438 7.4375 12.3438C5.71094 12.3438 4.94727 11.8125 4.44922 11.8125C2.85547 11.8125 1.59375 13.1074 1.59375 14.7012V15.5312H13.2812ZM7.4375 9.6875C4.78125 9.6875 2.65625 7.5625 2.65625 4.90625C2.65625 2.2832 4.78125 0.125 7.4375 0.125C10.0605 0.125 12.2188 2.2832 12.2188 4.90625C12.2188 7.5625 10.0605 9.6875 7.4375 9.6875ZM7.4375 1.71875C5.67773 1.71875 4.25 3.17969 4.25 4.90625C4.25 6.66602 5.67773 8.09375 7.4375 8.09375C9.16406 8.09375 10.625 6.66602 10.625 4.90625C10.625 3.17969 9.16406 1.71875 7.4375 1.71875Z" fill="#666666"/>
</svg>
