<svg width="19" height="22" viewBox="0 0 19 22" fill="none" xmlns="http://www.w3.org/2000/svg">
<path d="M4.5457 17.459C0.229298 13.1758 0.229298 6.16992 4.5457 1.88672C4.74492 1.6875 5.01055 1.6543 5.24297 1.78711L7.40117 3.14844C7.56719 3.24805 7.6668 3.41406 7.6668 3.61328C7.6668 3.67969 7.6668 3.7793 7.63359 3.8457L6.53789 6.53516C6.47149 6.73438 6.27227 6.86719 6.00664 6.86719H5.97344L4.11406 6.70117C3.4168 8.62695 3.4168 10.752 4.11406 12.6445L5.97344 12.4785H6.00664C6.27227 12.4785 6.47149 12.6113 6.53789 12.8105L7.63359 15.5C7.6668 15.5664 7.6668 15.666 7.6668 15.7324C7.6668 15.9316 7.56719 16.0977 7.40117 16.1973L5.24297 17.5586C5.14336 17.625 5.04375 17.625 4.94414 17.625C4.77813 17.625 4.64531 17.5918 4.5457 17.459ZM9.52617 3.8125C9.89141 4.47656 9.89141 5.30664 9.52617 5.9707C9.39336 6.20312 9.09453 6.23633 8.89531 6.07031L8.69609 5.87109C8.56328 5.73828 8.53008 5.53906 8.62969 5.37305C8.69609 5.24023 8.7293 5.07422 8.7293 4.9082C8.7293 4.70898 8.69609 4.54297 8.62969 4.41016C8.53008 4.24414 8.56328 4.04492 8.69609 3.91211L8.89531 3.71289C9.09453 3.54688 9.39336 3.58008 9.52617 3.8125ZM12.5477 0.791016C14.573 3.14844 14.573 6.63477 12.5477 8.99219C12.4148 9.19141 12.1492 9.19141 11.9832 9.02539L11.784 8.85938C11.6512 8.69336 11.618 8.46094 11.7508 8.29492C13.4109 6.33594 13.4109 3.44727 11.7508 1.48828C11.618 1.32227 11.6512 1.08984 11.784 0.923828L11.9832 0.757812C12.1492 0.591797 12.4148 0.591797 12.5477 0.791016ZM11.0203 2.28516C12.2156 3.8125 12.2488 5.9707 11.0203 7.49805C10.8875 7.69727 10.6219 7.73047 10.4559 7.56445L10.2566 7.36523C10.0906 7.23242 10.0906 7 10.1902 6.83398C11.0867 5.70508 11.0867 4.07812 10.1902 2.94922C10.0906 2.7832 10.0906 2.55078 10.2566 2.41797L10.4559 2.21875C10.6219 2.05273 10.8875 2.08594 11.0203 2.28516Z" fill="white"/>
</svg>
