<svg width="20" height="18" viewBox="0 0 20 18" fill="none" xmlns="http://www.w3.org/2000/svg">
<g id="Item" clip-path="url(#clip0_0_83)">
<path id="Vector" d="M5.35334 16.6636C5.12667 16.7392 4.92834 16.7108 4.75834 16.5786C4.58834 16.4464 4.52223 16.2481 4.56001 15.9836L5.41001 10.997L1.67001 7.42695C1.51889 7.23807 1.47167 7.03029 1.52834 6.80362C1.58501 6.57695 1.74556 6.44473 2.01001 6.40695L7.16667 5.67029L9.49001 1.08029C9.60334 0.853621 9.77334 0.740289 10 0.740289C10.2267 0.740289 10.3967 0.853621 10.51 1.08029L12.8333 5.67029L18.0467 6.40695C18.2733 6.44473 18.415 6.57695 18.4717 6.80362C18.5283 7.03029 18.4811 7.23807 18.33 7.42695L14.59 10.997L15.44 15.9836C15.4778 16.2481 15.4117 16.4464 15.2417 16.5786C15.0717 16.7108 14.8733 16.7392 14.6467 16.6636L10 14.227L5.35334 16.6636Z" fill="#B87869"/>
</g>
<defs>
<clipPath id="clip0_0_83">
<rect width="20" height="17" fill="white" transform="matrix(1 0 0 -1 0 17.2303)"/>
</clipPath>
</defs>
</svg>
